REM DIRINDEX 1\3,1\4,1\5,1\6,1\2\7,1\2\8,1\2\9,1\2\10,1\2\11
REM DIRNAME cjc021,folder01,folder02,folder03,folder04,folder05,folder06,folder07,folder08,folder09,folder10
TITLE ""
FILE "DISC5Track24.mp3" MP3
  TRACK 01 AUDIO
    TITLE "0:"
    INDEX 01 00:00:00
  TRACK 02 AUDIO
    TITLE "3:cjc021_5451"
    INDEX 01 00:00:25
  TRACK 03 AUDIO
    TITLE "0:"
    INDEX 01 00:01:32
  TRACK 04 AUDIO
    TITLE "4:cjc021_5452"
    INDEX 01 00:03:08
  TRACK 05 AUDIO
    TITLE "0:"
    INDEX 01 00:04:13
  TRACK 06 AUDIO
    TITLE "5:cjc021_5453"
    INDEX 01 00:04:50
  TRACK 07 AUDIO
    TITLE "0:"
    INDEX 01 00:07:47
  TRACK 08 AUDIO
    TITLE "3:cjc021_5454"
    INDEX 01 00:09:12
  TRACK 09 AUDIO
    TITLE "0:"
    INDEX 01 00:10:31
  TRACK 10 AUDIO
    TITLE "4:cjc021_5455"
    INDEX 01 00:12:07
  TRACK 11 AUDIO
    TITLE "0:"
    INDEX 01 00:13:28
  TRACK 12 AUDIO
    TITLE "5:cjc021_5456"
    INDEX 01 00:13:65
  TRACK 13 AUDIO
    TITLE "0:"
    INDEX 01 00:16:59
  TRACK 14 AUDIO
    TITLE "3:cjc021_5457"
    INDEX 01 00:18:27
  TRACK 15 AUDIO
    TITLE "0:"
    INDEX 01 00:19:56
  TRACK 16 AUDIO
    TITLE "4:cjc021_5458"
    INDEX 01 00:21:35
  TRACK 17 AUDIO
    TITLE "0:"
    INDEX 01 00:22:64
  TRACK 18 AUDIO
    TITLE "5:cjc021_5459"
    INDEX 01 00:23:28
  TRACK 19 AUDIO
    TITLE "0:"
    INDEX 01 00:26:24
  TRACK 20 AUDIO
    TITLE "3:cjc021_5460"
    INDEX 01 00:27:63
  TRACK 21 AUDIO
    TITLE "0:"
    INDEX 01 00:28:66
  TRACK 22 AUDIO
    TITLE "4:cjc021_5461"
    INDEX 01 00:30:42
  TRACK 23 AUDIO
    TITLE "0:"
    INDEX 01 00:31:43
  TRACK 24 AUDIO
    TITLE "5:cjc021_5462"
    INDEX 01 00:32:07
  TRACK 25 AUDIO
    TITLE "0:"
    INDEX 01 00:34:38
  TRACK 26 AUDIO
    TITLE "3:cjc021_5463"
    INDEX 01 00:36:01
  TRACK 27 AUDIO
    TITLE "0:"
    INDEX 01 00:37:12
  TRACK 28 AUDIO
    TITLE "4:cjc021_5464"
    INDEX 01 00:38:61
  TRACK 29 AUDIO
    TITLE "0:"
    INDEX 01 00:39:70
  TRACK 30 AUDIO
    TITLE "5:cjc021_5465"
    INDEX 01 00:40:32
  TRACK 31 AUDIO
    TITLE "0:"
    INDEX 01 00:42:29
  TRACK 32 AUDIO
    TITLE "3:cjc021_5466"
    INDEX 01 00:43:70
  TRACK 33 AUDIO
    TITLE "0:"
    INDEX 01 00:45:04
  TRACK 34 AUDIO
    TITLE "4:cjc021_5467"
    INDEX 01 00:46:56
  TRACK 35 AUDIO
    TITLE "0:"
    INDEX 01 00:47:68
  TRACK 36 AUDIO
    TITLE "5:cjc021_5468"
    INDEX 01 00:48:28
  TRACK 37 AUDIO
    TITLE "0:"
    INDEX 01 00:50:58
  TRACK 38 AUDIO
    TITLE "3:cjc021_5469"
    INDEX 01 00:52:24
  TRACK 39 AUDIO
    TITLE "0:"
    INDEX 01 00:53:31
  TRACK 40 AUDIO
    TITLE "4:cjc021_5470"
    INDEX 01 00:55:08
  TRACK 41 AUDIO
    TITLE "0:"
    INDEX 01 00:56:14
  TRACK 42 AUDIO
    TITLE "5:cjc021_5471"
    INDEX 01 00:56:51
  TRACK 43 AUDIO
    TITLE "0:"
    INDEX 01 00:59:10
  TRACK 44 AUDIO
    TITLE "3:cjc021_5472"
    INDEX 01 01:00:49
  TRACK 45 AUDIO
    TITLE "0:"
    INDEX 01 01:01:50
  TRACK 46 AUDIO
    TITLE "4:cjc021_5473"
    INDEX 01 01:03:20
  TRACK 47 AUDIO
    TITLE "0:"
    INDEX 01 01:04:19
  TRACK 48 AUDIO
    TITLE "5:cjc021_5474"
    INDEX 01 01:04:54
  TRACK 49 AUDIO
    TITLE "0:"
    INDEX 01 01:06:28
  TRACK 50 AUDIO
    TITLE "3:cjc021_5475"
    INDEX 01 01:07:66
  TRACK 51 AUDIO
    TITLE "0:"
    INDEX 01 01:08:68
  TRACK 52 AUDIO
    TITLE "4:cjc021_5476"
    INDEX 01 01:10:41
  TRACK 53 AUDIO
    TITLE "0:"
    INDEX 01 01:11:41
  TRACK 54 AUDIO
    TITLE "5:cjc021_5477"
    INDEX 01 01:12:03
  TRACK 55 AUDIO
    TITLE "0:"
    INDEX 01 01:14:02
  TRACK 56 AUDIO
    TITLE "3:cjc021_5478"
    INDEX 01 01:15:42
  TRACK 57 AUDIO
    TITLE "0:"
    INDEX 01 01:16:46
  TRACK 58 AUDIO
    TITLE "4:cjc021_5479"
    INDEX 01 01:18:23
  TRACK 59 AUDIO
    TITLE "0:"
    INDEX 01 01:19:28
  TRACK 60 AUDIO
    TITLE "5:cjc021_5480"
    INDEX 01 01:19:64
  TRACK 61 AUDIO
    TITLE "0:"
    INDEX 01 01:23:26
